<mxfile host="app.diagrams.net" modified="2021-03-25T09:55:46.043Z" agent="5.0 (Windows NT 10.0; Win64; x64) AppleWebKit/537.36 (KHTML, like Gecko) Chrome/87.0.4280.141 Safari/537.36 OPR/73.0.3856.415" etag="W7bHBstxP8zoSoZw-0gb" version="14.5.1" type="github">
  <diagram id="WR0fnqzpUvogeY7HLXCb" name="Page-1">
    <mxGraphModel dx="1424" dy="841" grid="0" gridSize="10" guides="1" tooltips="1" connect="1" arrows="1" fold="1" page="1" pageScale="1" pageWidth="1169" pageHeight="1654" math="0" shadow="0">
      <root>
        <mxCell id="0" />
        <mxCell id="1" parent="0" />
        <mxCell id="ZEzgqD3dTgIoIWU3gzUH-41" value="Actor" style="shape=umlActor;verticalLabelPosition=bottom;verticalAlign=top;html=1;outlineConnect=0;" parent="1" vertex="1">
          <mxGeometry x="51" y="1224" width="30" height="60" as="geometry" />
        </mxCell>
        <mxCell id="jiIVkECfn5aKBiefjf44-35" style="edgeStyle=orthogonalEdgeStyle;rounded=0;orthogonalLoop=1;jettySize=auto;html=1;exitX=1;exitY=0.5;exitDx=0;exitDy=0;entryX=0.047;entryY=0.597;entryDx=0;entryDy=0;entryPerimeter=0;" edge="1" parent="1" source="ZEzgqD3dTgIoIWU3gzUH-43" target="jiIVkECfn5aKBiefjf44-34">
          <mxGeometry relative="1" as="geometry" />
        </mxCell>
        <mxCell id="ZEzgqD3dTgIoIWU3gzUH-43" value="Login" style="ellipse;whiteSpace=wrap;html=1;" parent="1" vertex="1">
          <mxGeometry x="246" y="1207" width="120" height="81" as="geometry" />
        </mxCell>
        <mxCell id="ZEzgqD3dTgIoIWU3gzUH-44" value="Manager MilkTea" style="ellipse;whiteSpace=wrap;html=1;" parent="1" vertex="1">
          <mxGeometry x="594" y="973" width="120" height="80" as="geometry" />
        </mxCell>
        <mxCell id="ZEzgqD3dTgIoIWU3gzUH-49" value="" style="endArrow=classic;html=1;entryX=0;entryY=1;entryDx=0;entryDy=0;exitX=0.709;exitY=0.048;exitDx=0;exitDy=0;exitPerimeter=0;" parent="1" target="ZEzgqD3dTgIoIWU3gzUH-44" edge="1" source="jiIVkECfn5aKBiefjf44-34">
          <mxGeometry width="50" height="50" relative="1" as="geometry">
            <mxPoint x="564" y="1155" as="sourcePoint" />
            <mxPoint x="437" y="1184" as="targetPoint" />
          </mxGeometry>
        </mxCell>
        <mxCell id="ZEzgqD3dTgIoIWU3gzUH-56" value="Update food" style="ellipse;whiteSpace=wrap;html=1;" parent="1" vertex="1">
          <mxGeometry x="716" y="828" width="120" height="80" as="geometry" />
        </mxCell>
        <mxCell id="ZEzgqD3dTgIoIWU3gzUH-57" value="Delete food" style="ellipse;whiteSpace=wrap;html=1;" parent="1" vertex="1">
          <mxGeometry x="772" y="929" width="120" height="80" as="geometry" />
        </mxCell>
        <mxCell id="ZEzgqD3dTgIoIWU3gzUH-58" value="Add new food" style="ellipse;whiteSpace=wrap;html=1;" parent="1" vertex="1">
          <mxGeometry x="584" y="819" width="120" height="80" as="geometry" />
        </mxCell>
        <mxCell id="_EkDEBfy_FiJQWjqEdkb-1" value="Include" style="endArrow=classic;html=1;entryX=0.5;entryY=1;entryDx=0;entryDy=0;exitX=0;exitY=0;exitDx=0;exitDy=0;dashed=1;" parent="1" source="ZEzgqD3dTgIoIWU3gzUH-44" target="ZEzgqD3dTgIoIWU3gzUH-58" edge="1">
          <mxGeometry width="50" height="50" relative="1" as="geometry">
            <mxPoint x="387" y="914" as="sourcePoint" />
            <mxPoint x="537" y="914" as="targetPoint" />
          </mxGeometry>
        </mxCell>
        <mxCell id="_EkDEBfy_FiJQWjqEdkb-2" value="Include" style="endArrow=classic;html=1;entryX=0.235;entryY=0.94;entryDx=0;entryDy=0;exitX=1;exitY=0;exitDx=0;exitDy=0;dashed=1;entryPerimeter=0;" parent="1" source="ZEzgqD3dTgIoIWU3gzUH-44" target="ZEzgqD3dTgIoIWU3gzUH-56" edge="1">
          <mxGeometry width="50" height="50" relative="1" as="geometry">
            <mxPoint x="577" y="914" as="sourcePoint" />
            <mxPoint x="727" y="914" as="targetPoint" />
          </mxGeometry>
        </mxCell>
        <mxCell id="_EkDEBfy_FiJQWjqEdkb-3" value="Include" style="endArrow=classic;html=1;entryX=0;entryY=1;entryDx=0;entryDy=0;exitX=1;exitY=0.5;exitDx=0;exitDy=0;dashed=1;" parent="1" source="ZEzgqD3dTgIoIWU3gzUH-44" target="ZEzgqD3dTgIoIWU3gzUH-57" edge="1">
          <mxGeometry width="50" height="50" relative="1" as="geometry">
            <mxPoint x="757" y="1003.5" as="sourcePoint" />
            <mxPoint x="907" y="1003.5" as="targetPoint" />
          </mxGeometry>
        </mxCell>
        <mxCell id="K3Wm1dJaWriowburXV3m-1" value="Admin" style="text;html=1;strokeColor=none;fillColor=none;align=center;verticalAlign=middle;whiteSpace=wrap;rounded=0;" parent="1" vertex="1">
          <mxGeometry x="41" y="1184" width="40" height="20" as="geometry" />
        </mxCell>
        <mxCell id="Fly2N4VJo_kIdEsInrdJ-1" value="Receipt Management" style="ellipse;whiteSpace=wrap;html=1;" parent="1" vertex="1">
          <mxGeometry x="757" y="1214" width="120" height="80" as="geometry" />
        </mxCell>
        <mxCell id="Fly2N4VJo_kIdEsInrdJ-2" value="Remove food from bill" style="ellipse;whiteSpace=wrap;html=1;" parent="1" vertex="1">
          <mxGeometry x="972" y="1204" width="120" height="80" as="geometry" />
        </mxCell>
        <mxCell id="Fly2N4VJo_kIdEsInrdJ-4" value="Add foods to bill" style="ellipse;whiteSpace=wrap;html=1;" parent="1" vertex="1">
          <mxGeometry x="955" y="1094" width="120" height="80" as="geometry" />
        </mxCell>
        <mxCell id="Fly2N4VJo_kIdEsInrdJ-5" value="Include" style="endArrow=classic;html=1;exitX=0.5;exitY=0;exitDx=0;exitDy=0;dashed=1;" parent="1" source="Fly2N4VJo_kIdEsInrdJ-1" target="Fly2N4VJo_kIdEsInrdJ-4" edge="1">
          <mxGeometry width="50" height="50" relative="1" as="geometry">
            <mxPoint x="666" y="1089" as="sourcePoint" />
            <mxPoint x="816" y="1089" as="targetPoint" />
          </mxGeometry>
        </mxCell>
        <mxCell id="Fly2N4VJo_kIdEsInrdJ-6" value="Include" style="endArrow=classic;html=1;entryX=0;entryY=0.5;entryDx=0;entryDy=0;exitX=1;exitY=0.5;exitDx=0;exitDy=0;dashed=1;" parent="1" source="Fly2N4VJo_kIdEsInrdJ-1" target="Fly2N4VJo_kIdEsInrdJ-2" edge="1">
          <mxGeometry width="50" height="50" relative="1" as="geometry">
            <mxPoint x="856" y="1089" as="sourcePoint" />
            <mxPoint x="1006" y="1089" as="targetPoint" />
          </mxGeometry>
        </mxCell>
        <mxCell id="Fly2N4VJo_kIdEsInrdJ-11" value="Bill Report" style="ellipse;whiteSpace=wrap;html=1;" parent="1" vertex="1">
          <mxGeometry x="573" y="1315" width="120" height="80" as="geometry" />
        </mxCell>
        <mxCell id="jiIVkECfn5aKBiefjf44-1" value="Manager Category" style="ellipse;whiteSpace=wrap;html=1;" vertex="1" parent="1">
          <mxGeometry x="312" y="963" width="120" height="70" as="geometry" />
        </mxCell>
        <mxCell id="jiIVkECfn5aKBiefjf44-3" value="Add new category" style="ellipse;whiteSpace=wrap;html=1;" vertex="1" parent="1">
          <mxGeometry x="203" y="835" width="120" height="80" as="geometry" />
        </mxCell>
        <mxCell id="jiIVkECfn5aKBiefjf44-4" value="Deleted Category" style="ellipse;whiteSpace=wrap;html=1;" vertex="1" parent="1">
          <mxGeometry x="352" y="819" width="120" height="80" as="geometry" />
        </mxCell>
        <mxCell id="jiIVkECfn5aKBiefjf44-5" value="Update Category" style="ellipse;whiteSpace=wrap;html=1;" vertex="1" parent="1">
          <mxGeometry x="464" y="886" width="120" height="80" as="geometry" />
        </mxCell>
        <mxCell id="jiIVkECfn5aKBiefjf44-8" value="Include" style="endArrow=classic;html=1;entryX=0;entryY=1;entryDx=0;entryDy=0;exitX=0;exitY=0;exitDx=0;exitDy=0;dashed=1;" edge="1" parent="1" target="jiIVkECfn5aKBiefjf44-5">
          <mxGeometry width="50" height="50" relative="1" as="geometry">
            <mxPoint x="432.00359312880727" y="996.7157287525383" as="sourcePoint" />
            <mxPoint x="464.43" y="911" as="targetPoint" />
          </mxGeometry>
        </mxCell>
        <mxCell id="jiIVkECfn5aKBiefjf44-9" value="Include" style="endArrow=classic;html=1;entryX=0.5;entryY=1;entryDx=0;entryDy=0;exitX=0;exitY=0;exitDx=0;exitDy=0;dashed=1;" edge="1" parent="1" target="jiIVkECfn5aKBiefjf44-4">
          <mxGeometry width="50" height="50" relative="1" as="geometry">
            <mxPoint x="378.00359312880727" y="962.9957287525383" as="sourcePoint" />
            <mxPoint x="410.43" y="877.28" as="targetPoint" />
          </mxGeometry>
        </mxCell>
        <mxCell id="jiIVkECfn5aKBiefjf44-10" value="Include" style="endArrow=classic;html=1;entryX=0.817;entryY=0.943;entryDx=0;entryDy=0;exitX=0;exitY=0;exitDx=0;exitDy=0;dashed=1;entryPerimeter=0;" edge="1" parent="1" target="jiIVkECfn5aKBiefjf44-3">
          <mxGeometry width="50" height="50" relative="1" as="geometry">
            <mxPoint x="342.00359312880727" y="968.7157287525383" as="sourcePoint" />
            <mxPoint x="374.43" y="883" as="targetPoint" />
          </mxGeometry>
        </mxCell>
        <mxCell id="jiIVkECfn5aKBiefjf44-11" value="Refresh" style="ellipse;whiteSpace=wrap;html=1;" vertex="1" parent="1">
          <mxGeometry x="799" y="1023" width="120" height="80" as="geometry" />
        </mxCell>
        <mxCell id="jiIVkECfn5aKBiefjf44-12" value="Include" style="endArrow=classic;html=1;entryX=0;entryY=0.5;entryDx=0;entryDy=0;exitX=1;exitY=1;exitDx=0;exitDy=0;dashed=1;" edge="1" parent="1" source="ZEzgqD3dTgIoIWU3gzUH-44" target="jiIVkECfn5aKBiefjf44-11">
          <mxGeometry width="50" height="50" relative="1" as="geometry">
            <mxPoint x="724" y="1023" as="sourcePoint" />
            <mxPoint x="799.5735931288073" y="1007.2842712474617" as="targetPoint" />
          </mxGeometry>
        </mxCell>
        <mxCell id="jiIVkECfn5aKBiefjf44-13" value="Close" style="ellipse;whiteSpace=wrap;html=1;" vertex="1" parent="1">
          <mxGeometry x="682" y="1103" width="120" height="80" as="geometry" />
        </mxCell>
        <mxCell id="jiIVkECfn5aKBiefjf44-14" value="Include" style="endArrow=classic;html=1;exitX=0.649;exitY=0.994;exitDx=0;exitDy=0;dashed=1;exitPerimeter=0;" edge="1" parent="1" source="ZEzgqD3dTgIoIWU3gzUH-44" target="jiIVkECfn5aKBiefjf44-13">
          <mxGeometry width="50" height="50" relative="1" as="geometry">
            <mxPoint x="706.4264068711927" y="1051.284271247462" as="sourcePoint" />
            <mxPoint x="809" y="1073" as="targetPoint" />
          </mxGeometry>
        </mxCell>
        <mxCell id="jiIVkECfn5aKBiefjf44-15" value="Refresh" style="ellipse;whiteSpace=wrap;html=1;" vertex="1" parent="1">
          <mxGeometry x="99" y="937" width="120" height="80" as="geometry" />
        </mxCell>
        <mxCell id="jiIVkECfn5aKBiefjf44-16" value="Close" style="ellipse;whiteSpace=wrap;html=1;" vertex="1" parent="1">
          <mxGeometry x="134" y="1043" width="120" height="80" as="geometry" />
        </mxCell>
        <mxCell id="jiIVkECfn5aKBiefjf44-17" value="Include" style="endArrow=classic;html=1;entryX=1;entryY=0.5;entryDx=0;entryDy=0;exitX=0;exitY=0.5;exitDx=0;exitDy=0;dashed=1;" edge="1" parent="1" source="jiIVkECfn5aKBiefjf44-1" target="jiIVkECfn5aKBiefjf44-15">
          <mxGeometry width="50" height="50" relative="1" as="geometry">
            <mxPoint x="352.0035931288071" y="978.7157287525383" as="sourcePoint" />
            <mxPoint x="311.03999999999996" y="920.4399999999998" as="targetPoint" />
          </mxGeometry>
        </mxCell>
        <mxCell id="jiIVkECfn5aKBiefjf44-18" value="Include" style="endArrow=classic;html=1;entryX=1;entryY=0;entryDx=0;entryDy=0;exitX=0;exitY=1;exitDx=0;exitDy=0;dashed=1;" edge="1" parent="1" source="jiIVkECfn5aKBiefjf44-1" target="jiIVkECfn5aKBiefjf44-16">
          <mxGeometry width="50" height="50" relative="1" as="geometry">
            <mxPoint x="362.0035931288071" y="988.7157287525383" as="sourcePoint" />
            <mxPoint x="321.03999999999996" y="930.4399999999998" as="targetPoint" />
          </mxGeometry>
        </mxCell>
        <mxCell id="jiIVkECfn5aKBiefjf44-20" value="Close" style="ellipse;whiteSpace=wrap;html=1;" vertex="1" parent="1">
          <mxGeometry x="97" y="1325" width="120" height="80" as="geometry" />
        </mxCell>
        <mxCell id="jiIVkECfn5aKBiefjf44-21" value="Close" style="ellipse;whiteSpace=wrap;html=1;" vertex="1" parent="1">
          <mxGeometry x="844" y="1362" width="120" height="80" as="geometry" />
        </mxCell>
        <mxCell id="jiIVkECfn5aKBiefjf44-22" value="Include" style="endArrow=classic;html=1;entryX=0;entryY=0;entryDx=0;entryDy=0;exitX=0.569;exitY=1.005;exitDx=0;exitDy=0;dashed=1;exitPerimeter=0;" edge="1" parent="1" source="Fly2N4VJo_kIdEsInrdJ-1" target="jiIVkECfn5aKBiefjf44-21">
          <mxGeometry width="50" height="50" relative="1" as="geometry">
            <mxPoint x="887" y="1264" as="sourcePoint" />
            <mxPoint x="987.9999999999827" y="1241" as="targetPoint" />
          </mxGeometry>
        </mxCell>
        <mxCell id="jiIVkECfn5aKBiefjf44-23" value="Payment" style="ellipse;whiteSpace=wrap;html=1;" vertex="1" parent="1">
          <mxGeometry x="951" y="1294" width="120" height="80" as="geometry" />
        </mxCell>
        <mxCell id="jiIVkECfn5aKBiefjf44-24" value="Include" style="endArrow=classic;html=1;entryX=0.019;entryY=0.346;entryDx=0;entryDy=0;exitX=0.961;exitY=0.817;exitDx=0;exitDy=0;dashed=1;exitPerimeter=0;entryPerimeter=0;" edge="1" parent="1" source="Fly2N4VJo_kIdEsInrdJ-1" target="jiIVkECfn5aKBiefjf44-23">
          <mxGeometry width="50" height="50" relative="1" as="geometry">
            <mxPoint x="887" y="1264" as="sourcePoint" />
            <mxPoint x="982" y="1254" as="targetPoint" />
          </mxGeometry>
        </mxCell>
        <mxCell id="jiIVkECfn5aKBiefjf44-25" value="Close" style="ellipse;whiteSpace=wrap;html=1;" vertex="1" parent="1">
          <mxGeometry x="712" y="1408" width="120" height="80" as="geometry" />
        </mxCell>
        <mxCell id="jiIVkECfn5aKBiefjf44-27" value="Include" style="endArrow=classic;html=1;entryX=0;entryY=0;entryDx=0;entryDy=0;exitX=0.569;exitY=1.005;exitDx=0;exitDy=0;dashed=1;exitPerimeter=0;" edge="1" parent="1" target="jiIVkECfn5aKBiefjf44-25">
          <mxGeometry width="50" height="50" relative="1" as="geometry">
            <mxPoint x="677.7099999999998" y="1380.9999999999998" as="sourcePoint" />
            <mxPoint x="714.0035931288073" y="1460.3157287525378" as="targetPoint" />
          </mxGeometry>
        </mxCell>
        <mxCell id="jiIVkECfn5aKBiefjf44-28" value="Statistical" style="ellipse;whiteSpace=wrap;html=1;" vertex="1" parent="1">
          <mxGeometry x="584" y="1468" width="120" height="80" as="geometry" />
        </mxCell>
        <mxCell id="jiIVkECfn5aKBiefjf44-31" value="Include" style="endArrow=classic;html=1;entryX=0.5;entryY=0;entryDx=0;entryDy=0;exitX=0.5;exitY=1;exitDx=0;exitDy=0;dashed=1;" edge="1" parent="1" source="Fly2N4VJo_kIdEsInrdJ-11" target="jiIVkECfn5aKBiefjf44-28">
          <mxGeometry width="50" height="50" relative="1" as="geometry">
            <mxPoint x="687.7099999999996" y="1391" as="sourcePoint" />
            <mxPoint x="739.573593128795" y="1429.7157287525301" as="targetPoint" />
          </mxGeometry>
        </mxCell>
        <mxCell id="jiIVkECfn5aKBiefjf44-32" value="" style="endArrow=classic;html=1;entryX=0;entryY=0.5;entryDx=0;entryDy=0;" edge="1" parent="1" target="ZEzgqD3dTgIoIWU3gzUH-43">
          <mxGeometry width="50" height="50" relative="1" as="geometry">
            <mxPoint x="108" y="1248" as="sourcePoint" />
            <mxPoint x="320.57359312880726" y="1107.0042712474622" as="targetPoint" />
          </mxGeometry>
        </mxCell>
        <mxCell id="jiIVkECfn5aKBiefjf44-33" value="Extends" style="endArrow=classic;html=1;entryX=1;entryY=0;entryDx=0;entryDy=0;exitX=0;exitY=1;exitDx=0;exitDy=0;dashed=1;" edge="1" parent="1" source="ZEzgqD3dTgIoIWU3gzUH-43" target="jiIVkECfn5aKBiefjf44-20">
          <mxGeometry width="50" height="50" relative="1" as="geometry">
            <mxPoint x="642.9999999999995" y="1405" as="sourcePoint" />
            <mxPoint x="654" y="1478" as="targetPoint" />
          </mxGeometry>
        </mxCell>
        <mxCell id="jiIVkECfn5aKBiefjf44-34" value="Milk Tea Management System" style="ellipse;whiteSpace=wrap;html=1;" vertex="1" parent="1">
          <mxGeometry x="461" y="1189" width="145" height="99" as="geometry" />
        </mxCell>
        <mxCell id="jiIVkECfn5aKBiefjf44-36" value="" style="endArrow=classic;html=1;entryX=1;entryY=1;entryDx=0;entryDy=0;exitX=0.287;exitY=0.01;exitDx=0;exitDy=0;exitPerimeter=0;" edge="1" parent="1" source="jiIVkECfn5aKBiefjf44-34" target="jiIVkECfn5aKBiefjf44-1">
          <mxGeometry width="50" height="50" relative="1" as="geometry">
            <mxPoint x="553.8049999999998" y="1203.752" as="sourcePoint" />
            <mxPoint x="621.5735931288073" y="1051.2842712474621" as="targetPoint" />
          </mxGeometry>
        </mxCell>
        <mxCell id="jiIVkECfn5aKBiefjf44-37" value="" style="endArrow=classic;html=1;entryX=0.001;entryY=0.663;entryDx=0;entryDy=0;exitX=0.962;exitY=0.323;exitDx=0;exitDy=0;exitPerimeter=0;entryPerimeter=0;" edge="1" parent="1" source="jiIVkECfn5aKBiefjf44-34" target="jiIVkECfn5aKBiefjf44-13">
          <mxGeometry width="50" height="50" relative="1" as="geometry">
            <mxPoint x="553.8049999999998" y="1203.752" as="sourcePoint" />
            <mxPoint x="621.5735931288073" y="1051.2842712474621" as="targetPoint" />
          </mxGeometry>
        </mxCell>
        <mxCell id="jiIVkECfn5aKBiefjf44-38" value="" style="endArrow=classic;html=1;entryX=0;entryY=0.5;entryDx=0;entryDy=0;exitX=1;exitY=0.5;exitDx=0;exitDy=0;" edge="1" parent="1" source="jiIVkECfn5aKBiefjf44-34" target="Fly2N4VJo_kIdEsInrdJ-1">
          <mxGeometry width="50" height="50" relative="1" as="geometry">
            <mxPoint x="590.4899999999998" y="1222.5620000000001" as="sourcePoint" />
            <mxPoint x="692.1199999999999" y="1166.0400000000002" as="targetPoint" />
          </mxGeometry>
        </mxCell>
        <mxCell id="jiIVkECfn5aKBiefjf44-39" value="" style="endArrow=classic;html=1;exitX=1;exitY=1;exitDx=0;exitDy=0;entryX=0.4;entryY=-0.01;entryDx=0;entryDy=0;entryPerimeter=0;" edge="1" parent="1" source="jiIVkECfn5aKBiefjf44-34" target="Fly2N4VJo_kIdEsInrdJ-11">
          <mxGeometry width="50" height="50" relative="1" as="geometry">
            <mxPoint x="600.4899999999998" y="1232.5620000000001" as="sourcePoint" />
            <mxPoint x="702.1199999999999" y="1176.0400000000002" as="targetPoint" />
          </mxGeometry>
        </mxCell>
      </root>
    </mxGraphModel>
  </diagram>
</mxfile>
